<?xml version="1.0" encoding="UTF-8" standalone="no"?>
<!-- Created with Inkscape (http://www.inkscape.org/) -->

<svg
   width="67.911003mm"
   height="18.792997mm"
   viewBox="0 0 67.911003 18.792998"
   version="1.1"
   id="svg5"
   xmlns="http://www.w3.org/2000/svg"
   xmlns:svg="http://www.w3.org/2000/svg">
  <defs
     id="defs2" />
  <g
     id="layer1"
     transform="translate(-10.855741,-9.9246764)">
    <g
       aria-label="Reshared"
       id="text236"
       style="font-weight:600;font-size:19.7556px;font-family:Caveat;-inkscape-font-specification:'Caveat Semi-Bold'">
      <path
         d="m 14.553703,26.460435 q -0.07902,0.197556 -0.454379,0.197556 -0.3556,0.01975 -0.691446,-0.237067 -0.237067,-0.237068 -0.316089,-0.375357 -0.05927,-0.118533 0.07902,-0.434623 0.138289,-0.296334 0.474135,-1.066802 0.07902,-0.474135 0.276578,-0.948269 0.197556,-0.49389 0.296334,-0.691446 0.07902,-0.276579 0.31609,-0.908758 0.256822,-0.651935 0.572912,-1.442159 0.335845,-0.790224 0.632179,-1.48167 0.296334,-0.711201 0.434623,-1.066802 0.335846,-0.790224 0.691446,-1.65947 0.355601,-0.869247 0.968025,-2.192872 0.07902,-0.197556 -0.01976,-0.414868 -0.07902,-0.217311 -0.414867,-0.217311 -0.197556,-0.217312 -0.217312,-0.454379 -0.01976,-0.237067 0.197556,-0.355601 l 1.540937,-0.533401 q 0.928513,-0.217312 1.896537,-0.118534 0.98778,0.07902 1.857027,0.533402 0.948269,0.553156 1.363136,1.185336 0.434623,0.632179 0.474135,1.284114 0.03951,0.632179 -0.177801,1.185336 -0.158045,0.414867 -0.612423,0.908757 -0.434624,0.49389 -1.027292,0.98778 -0.572912,0.49389 -1.205091,0.908758 -0.612424,0.395112 -1.145825,0.612423 -0.49389,0.237068 -1.086558,0.474135 -0.592668,0.217311 -1.16558,0.395112 -0.31609,0.07902 -0.750713,0.07902 -0.434623,0 -0.651935,-0.07902 l -0.335845,0.730957 q -0.197556,0.711202 -0.691446,2.113849 -0.474135,1.402648 -1.106314,3.081874 z m 7.842973,0.316089 q -0.158044,0.05927 -0.474134,0.03951 -0.296334,-0.01976 -0.750713,-0.31609 Q 20.302583,25.9863 19.433336,25.255343 18.56409,24.524386 17.477532,23.279783 17.062664,22.785893 16.825597,22.331514 16.58853,21.85738 16.27244,21.106667 l -0.276578,-1.066802 0.67169,-0.434623 0.829736,0.711201 q 0.316089,0.691446 0.750712,1.323625 0.454379,0.63218 0.889002,1.12607 0.355601,0.414867 0.968025,1.007535 0.612423,0.572913 1.303869,1.106314 0.691446,0.533401 1.244603,0.809979 0.118534,0.09878 0.07902,0.355601 -0.03951,0.256823 -0.158045,0.474135 -0.09878,0.237067 -0.177801,0.256822 z m -5.017922,-7.605906 q 0.454379,-0.03951 1.027291,-0.237067 0.572913,-0.197556 1.185336,-0.454379 0.572913,-0.276578 1.145825,-0.612423 0.592668,-0.355601 1.086558,-0.770469 0.49389,-0.434623 0.790224,-0.908757 0.296334,-0.474135 0.256823,-0.98778 0,-0.256823 -0.177801,-0.553157 -0.158044,-0.31609 -0.414867,-0.553157 -0.256823,-0.237067 -0.513646,-0.316089 -0.790224,-0.197556 -1.244603,-0.237068 -0.454378,-0.05927 -0.67169,0.09878 -0.217312,0.13829 -0.31609,0.533402 0,0.05927 -0.158044,0.395112 -0.158045,0.316089 -0.395112,0.809979 -0.217312,0.474135 -0.434624,1.027291 -0.572912,1.165581 -0.84949,1.738493 -0.276579,0.553157 -0.335846,0.750713 -0.05927,0.197556 0.01976,0.276578 z"
         id="path9079" />
      <path
         d="m 27.710924,24.781209 q -0.533401,0.335845 -1.16558,0.395112 -0.612424,0.05927 -1.16558,-0.158045 -0.553157,-0.237067 -0.889002,-0.711202 -0.256823,-0.316089 -0.414868,-0.869246 -0.138289,-0.572912 -0.03951,-1.521181 0.09878,-0.849491 0.533401,-1.718737 0.454379,-0.889002 1.086558,-1.560693 0.651935,-0.691446 1.363136,-0.948269 0.296334,-0.118533 0.553157,-0.138289 0.256823,-0.03951 0.711202,0 0.454379,0.05927 0.770468,0.217312 0.31609,0.138289 0.474135,0.335845 0.296334,0.31609 0.395112,0.612424 0.09878,0.276578 0.09878,0.553156 -0.09878,0.572913 -0.572913,1.264359 -0.474134,0.691446 -1.303869,1.066802 -0.375357,0.138289 -0.849491,0.158045 -0.474135,0.01976 -1.106314,-0.158045 -0.434623,-0.118533 -0.572912,0.07902 -0.138289,0.197556 -0.158045,0.84949 0,0.474135 0.138289,0.770469 0.158045,0.296334 0.513646,0.375356 0.434623,0.07902 0.632179,0.05927 0.217312,-0.03951 0.513646,-0.197556 0.217311,-0.138289 0.335845,-0.217312 0.138289,-0.09878 0.237067,-0.197556 0.118534,-0.09878 0.256823,-0.197556 0.118533,-0.09878 0.197556,-0.138289 0.09878,-0.03951 0.197556,-0.03951 0.1778,0.01976 0.335845,0.197556 0.158045,0.1778 0.217312,0.31609 0.07902,0.09878 -0.09878,0.375356 -0.158045,0.276578 -0.49389,0.592668 -0.31609,0.296334 -0.730958,0.553157 z m -0.1778,-4.326477 q 0.1778,-0.07902 0.434623,-0.276578 0.256823,-0.217312 0.454379,-0.454379 0.197556,-0.237067 0.197556,-0.395112 0,-0.237067 -0.276578,-0.395112 -0.276579,-0.1778 -0.750713,-0.05927 -0.177801,0.03951 -0.414868,0.237068 -0.237067,0.197556 -0.474134,0.454378 -0.217312,0.237068 -0.375357,0.454379 -0.158044,0.197556 -0.1778,0.296334 0.07902,0.09878 0.31609,0.158045 0.256822,0.03951 0.553156,0.03951 0.31609,0 0.513646,-0.05927 z"
         id="path9076" />
      <path
         d="m 31.662031,25.373877 q -0.572913,-0.237067 -0.889002,-0.513646 -0.31609,-0.296334 -0.31609,-0.513645 0.01976,-0.13829 0.09878,-0.217312 0.09878,-0.09878 0.414868,-0.07902 0.335845,0 1.047047,0.138289 0.217311,0 0.474134,-0.01976 0.276578,-0.03951 0.49389,-0.07902 0.237067,-0.05927 0.31609,-0.138289 0.09878,-0.01976 0.05927,-0.07902 -0.03951,-0.07902 -0.138289,-0.158045 -0.07902,-0.07902 -0.1778,-0.118533 -0.09878,-0.03951 -0.177801,-0.03951 -0.01976,-0.09878 -0.1778,-0.197556 -0.138289,-0.118534 -0.335845,-0.217312 -0.434623,-0.355601 -0.770469,-0.632179 -0.335845,-0.296334 -0.256822,-0.414868 0,-0.07902 0,-0.07902 0,-0.01976 0,-0.01976 -0.13829,0 -0.276579,-0.375356 -0.138289,-0.395112 -0.138289,-0.711202 0,-0.355601 0.158045,-0.730957 0.158045,-0.395112 0.414867,-0.750713 0.256823,-0.375356 0.533402,-0.651935 0.3556,-0.335845 0.809979,-0.691446 0.474135,-0.375356 0.98778,-0.651934 0.513646,-0.296334 1.027291,-0.434624 0.31609,-0.07902 0.651935,-0.07902 0.335845,0 0.513646,0.118534 0.1778,-0.03951 0.395112,0.118533 0.217311,0.158045 0.414867,0.395112 0.197556,0.237067 0.296334,0.454379 0,0.237067 -0.01975,0.572912 -0.01976,0.31609 -0.07902,0.572913 -0.03951,0.237067 -0.1778,0.237067 0,0 -0.05927,0.01976 -0.03951,0 -0.03951,0.09878 0,0.197556 -0.296334,0.454378 -0.375356,0.256823 -0.691446,0.375357 -0.31609,0.118533 -0.454379,-0.05927 -0.09878,-0.07902 -0.1778,-0.138289 -0.07902,-0.07902 -0.158045,-0.158045 0,0 -0.05927,-0.07902 -0.03951,-0.07902 -0.03951,-0.177801 0,-0.07902 0.05927,-0.138289 0.05927,-0.07902 0.05927,-0.07902 0.217311,-0.177801 0.3556,-0.395112 0.158045,-0.217312 0.237068,-0.414868 0.09878,-0.217312 0.09878,-0.31609 0,-0.118533 -0.05927,-0.138289 -0.03951,-0.01975 -0.197556,-0.01975 -0.158045,0.03951 -0.513646,0.217311 -0.335845,0.158045 -0.691446,0.375357 -0.355601,0.217311 -0.533401,0.375356 -0.07902,0.138289 -0.118534,0.1778 -0.01976,0.03951 -0.09878,0.03951 0,-0.07902 -0.118533,0.03951 -0.09878,0.118533 -0.256823,0.316089 -0.138289,0.197556 -0.296334,0.414868 -0.138289,0.217312 -0.217312,0.335845 -0.03951,0.138289 -0.09878,0.296334 -0.05927,0.158045 -0.03951,0.31609 -0.01975,0.217311 0.118534,0.375356 0.158045,0.138289 0.49389,0.414868 0.691446,0.513645 1.047047,0.829735 0.375356,0.296334 0.533401,0.49389 0.158045,0.1778 0.197556,0.355601 0.335845,0.612423 0.118533,1.027291 -0.217311,0.395112 -0.750712,0.632179 -0.197556,0.09878 -0.671691,0.177801 -0.474134,0.07902 -1.007535,0.05927 -0.513646,0 -0.849491,-0.118533 z"
         id="path9073" />
      <path
         d="m 43.71295,24.860231 q -0.49389,0.237067 -0.948269,0.158045 -0.434623,-0.07902 -0.711202,-0.49389 -0.276578,-0.434623 -0.276578,-1.205092 0,-0.217311 0.03951,-0.553156 0.03951,-0.355601 0.118534,-0.750713 0.09878,-0.395112 0.217311,-0.750713 0.05927,-0.1778 0.138289,-0.31609 0.07902,-0.158044 0,-0.158044 -0.07902,0 -0.197556,0.09878 -0.09878,0.09878 -0.158044,0.158044 -0.474135,0.414868 -0.908758,0.889002 -0.414868,0.474135 -0.750713,0.948269 -0.335845,0.474135 -0.533401,0.869247 -0.1778,0.395112 -0.1778,0.632179 0,0.296334 -0.296334,0.414867 -0.296334,0.118534 -0.513646,-0.01975 -0.375356,-0.217312 -0.612424,-0.612424 -0.237067,-0.414867 -0.1778,-1.145825 0.05927,-0.928513 0.158045,-1.65947 0.09878,-0.730957 0.316089,-1.580448 0.237068,-0.869246 0.612424,-2.113849 0.256823,-0.691446 0.474134,-1.30387 0.217312,-0.632179 0.375357,-1.066802 0.1778,-0.434623 0.217311,-0.533401 0.09878,-0.09878 0.256823,-0.474135 0.158045,-0.395112 0.276579,-0.790224 0.138289,-0.395112 0.138289,-0.474134 0,-0.158045 0.05927,-0.276579 0.07902,-0.118533 0.138289,-0.217311 0.09878,-0.217312 0.1778,-0.296334 0.07902,-0.09878 0.138289,-0.09878 0.09878,0 0.296334,0.09878 0.197556,0.07902 0.375357,0.217311 0.197556,0.118534 0.237067,0.276579 0.138289,0.276578 0.138289,0.572912 0.01976,0.276579 -0.138289,0.691446 -0.158045,0.414868 -0.553157,1.145825 -0.316089,0.612424 -0.572912,1.264358 -0.256823,0.651935 -0.49389,1.363137 -0.09878,0.296334 -0.256823,0.809979 -0.158045,0.49389 -0.31609,1.027292 -0.158044,0.513645 -0.256822,0.928513 -0.09878,0.414867 -0.09878,0.533401 0,0.138289 0.158044,0.138289 0.158045,-0.01975 0.31609,-0.237067 0.07902,-0.158045 0.276578,-0.335845 0.197556,-0.177801 0.355601,-0.335845 0.158045,-0.177801 0.395112,-0.434624 0.237067,-0.256822 0.513646,-0.513645 0.296334,-0.256823 0.533401,-0.414868 0.256823,-0.1778 0.414868,-0.1778 0.335845,0 0.572912,0.217311 0.237067,0.197556 0.395112,0.572913 0.05927,0.05927 0.118534,0.158045 0.05927,0.07902 0.07902,0.118533 0.09878,0.07902 0.05927,0.651935 -0.01976,0.553157 -0.335845,1.501426 -0.177801,0.730957 -0.237068,1.145824 -0.05927,0.395112 0.09878,0.395112 0,0 0.197556,-0.118533 0.217312,-0.118534 0.454379,-0.256823 0.572913,-0.375356 0.889002,-0.296334 0.31609,0.05927 0.31609,0.276578 0,0.13829 -0.118534,0.335846 -0.09878,0.1778 -0.09878,0.256822 0,0 0,0.01976 0,0 0,0.07902 0,0.03951 -0.256823,0.276579 -0.256822,0.237067 -0.572912,0.49389 -0.296334,0.237067 -0.474134,0.276578 z"
         id="path9070" />
      <path
         d="m 48.236963,24.899742 q -0.158045,0.03951 -0.414868,0.03951 -0.256822,-0.01976 -0.454378,-0.05927 -0.177801,-0.05927 -0.177801,-0.118534 0,-0.09878 -0.09878,-0.09878 0,0 -0.1778,-0.138289 -0.177801,-0.138289 -0.355601,-0.217312 -0.1778,-0.276578 -0.217312,-0.632179 -0.01976,-0.355601 0.217312,-1.205091 0.03951,-0.592668 0.355601,-1.264359 0.335845,-0.691446 0.829735,-1.363136 0.513646,-0.691446 1.047047,-1.224847 0.553157,-0.533402 0.98778,-0.790224 0.276578,-0.276579 0.711201,-0.296334 0.454379,-0.01976 0.80998,0.1778 0.197556,0.09878 0.414868,0.375356 0.217311,0.256823 0.414867,0.572913 0.217312,0.296334 0.335845,0.553157 0.05927,0.217311 0.09878,0.395112 0.03951,0.158044 0.03951,0.395112 0.01976,0.237067 -0.03951,0.711201 -0.09878,0.355601 -0.1778,0.770469 -0.05927,0.414867 -0.05927,0.790224 -0.03951,0.375356 0.07902,0.533401 0.138289,0.158045 0.395112,0.01975 0.237067,-0.118533 0.474134,-0.05927 0.237067,0.05927 0.355601,0.256822 0.118533,0.197556 0,0.513646 -0.07902,0.237067 -0.335845,0.49389 -0.237068,0.237067 -0.572913,0.395112 -0.316089,0.138289 -0.592668,0.138289 -0.217311,0 -0.434623,-0.197556 -0.217312,-0.197556 -0.395112,-0.513645 -0.158045,-0.335846 -0.276578,-0.691446 l -0.118534,-0.454379 -0.750713,0.711201 q -0.256823,0.276579 -0.513645,0.513646 -0.237068,0.217312 -0.296334,0.31609 -0.09878,0.1778 -0.375357,0.335845 -0.276578,0.138289 -0.730957,0.316089 z m 0.375356,-1.65947 q 0.335846,-0.197556 0.63218,-0.49389 0.316089,-0.31609 0.612423,-0.691446 0.296334,-0.395112 0.572913,-0.790224 0.335845,-0.454379 0.49389,-0.770468 0.158044,-0.31609 0.237067,-0.651935 -0.07902,-0.217312 -0.237067,-0.454379 -0.13829,-0.256823 -0.276579,-0.276578 -0.335845,0 -0.750713,0.414867 -0.414867,0.395112 -0.869246,1.027291 -0.07902,0.09878 -0.217312,0.31609 -0.118533,0.217312 -0.237067,0.414868 -0.118533,0.1778 -0.158045,0.237067 -0.05927,0.07902 -0.197556,0.395112 -0.118533,0.316089 -0.217311,0.632179 -0.09878,0.296334 -0.09878,0.414868 0,0.118533 0.01976,0.256822 0.03951,0.13829 0.197556,0.177801 0.158045,0.03951 0.49389,-0.158045 z"
         id="path9067" />
      <path
         d="m 55.269951,24.919498 q -0.138289,0.07902 -0.355601,-0.07902 -0.197556,-0.158045 -0.276578,-0.296334 -0.07902,-0.09878 -0.07902,-0.335846 0.01976,-0.237067 0.09878,-0.553156 0.09878,-0.474135 0.138289,-0.730958 0.05927,-0.256822 0.118534,-0.474134 0.05927,-0.217312 0.158045,-0.592668 0.118533,-0.395112 0.1778,-0.651935 0.07902,-0.256823 0.158045,-0.49389 0.07902,-0.256823 0.197556,-0.572912 0.138289,-0.474135 0.296334,-0.908758 0.1778,-0.434623 0.375356,-0.770468 0.07902,-0.197556 0.237068,-0.454379 0.158044,-0.276578 0.276578,-0.375356 0.118534,-0.118534 0.335845,-0.118534 0.237067,0 0.395112,0.09878 0.197556,0.118534 0.256823,0.355601 0.07902,0.237067 -0.07902,0.711201 -0.07902,0.49389 -0.237068,0.829736 -0.138289,0.335845 -0.414867,0.869246 0.05927,-0.01976 0.197556,-0.07902 0.158045,-0.07902 0.237067,-0.07902 0.256823,-0.296334 0.49389,-0.49389 0.237067,-0.197556 0.553157,-0.434623 0.375356,-0.296334 0.691446,-0.49389 0.335845,-0.197556 0.790224,-0.237067 0.217311,-0.05927 0.434623,0.03951 0.237067,0.09878 0.395112,0.31609 0.1778,0.197556 0.197556,0.49389 -0.237067,-0.07902 -0.434623,0.05927 -0.197556,0.118534 -0.335845,0.31609 -0.13829,0.197556 -0.217312,0.375356 -0.276578,0.03951 -0.572912,0.217312 -0.296334,0.158045 -0.572913,0.375356 -0.276578,0.217312 -0.553157,0.434624 -0.414867,0.316089 -0.730957,0.632179 -0.296334,0.296334 -0.533401,0.67169 -0.197556,0.335845 -0.414868,0.711202 -0.197556,0.355601 -0.3556,0.651935 -0.13829,0.296334 -0.237068,0.414867 -0.138289,0.296334 -0.414867,0.49389 -0.276579,0.177801 -0.395112,0.158045 z"
         id="path9064" />
      <path
         d="m 62.994401,24.99852 q -0.770469,-0.316089 -1.047047,-0.968024 -0.276579,-0.67169 -0.138289,-1.857026 0.03951,-0.612424 -0.01976,-0.80998 -0.03951,-0.217312 -0.256823,-0.414868 -0.05927,-0.07902 -0.256823,-0.237067 -0.197556,-0.1778 -0.1778,-0.276578 -0.01976,-0.138289 0.03951,-0.335845 0.07902,-0.197556 0.138289,-0.197556 0.118534,-0.03951 0.237068,-0.09878 0.138289,-0.07902 0.217311,-0.03951 0.07902,0 0.217312,0.07902 0.158045,0.05927 0.158045,0.138289 0.07902,0.138289 0.237067,-0.05927 0.1778,-0.217311 0.375356,-0.612423 0.197556,-0.31609 0.49389,-0.592668 0.31609,-0.296334 0.632179,-0.533402 0.31609,-0.237067 0.533402,-0.3556 0.09878,-0.03951 0.3556,-0.118534 0.256823,-0.07902 0.533402,-0.118534 0.296334,-0.03951 0.454378,-0.01975 0.355601,0.01975 0.691446,0.256823 0.355601,0.237067 0.572913,0.474134 0.256823,0.1778 0.335845,0.533401 0.07902,0.335845 0.05927,0.711202 -0.01976,0.375356 -0.158045,0.651935 -0.05927,0.197556 -0.395112,0.533401 -0.335845,0.316089 -0.730957,0.632179 -0.395112,0.296334 -0.691446,0.414868 -0.256823,0.05927 -0.632179,0.09878 -0.375357,0.01975 -0.691446,0 -0.31609,-0.01976 -0.434624,-0.07902 -0.138289,-0.07902 -0.237067,0.118534 -0.07902,0.1778 -0.138289,0.730957 -0.01976,0.276578 0,0.454379 0.03951,0.1778 0.07902,0.256823 0.13829,0.197556 0.31609,0.335845 0.1778,0.138289 0.572912,0.07902 0.375357,-0.05927 0.750713,-0.474134 0.395112,-0.434623 0.711202,-0.691446 0.07902,-0.138289 0.316089,-0.177801 0.237068,-0.03951 0.553157,0.03951 0.217312,0.138289 0.197556,0.395112 0,0.256822 -0.276578,0.770468 -0.05927,0.138289 -0.31609,0.395112 -0.237067,0.237067 -0.533401,0.49389 -0.276578,0.237067 -0.474134,0.355601 -0.592668,0.316089 -1.145825,0.316089 -0.553157,-0.01975 -1.027291,-0.197556 z m 1.363136,-4.30672 q 0.335845,-0.07902 0.553157,-0.13829 0.237067,-0.07902 0.434623,-0.256822 0.217312,-0.177801 0.513646,-0.592668 0.07902,-0.217312 0.07902,-0.395112 0,-0.177801 -0.05927,-0.237068 -0.158045,-0.158044 -0.375356,-0.09878 -0.197556,0.03951 -0.414868,0.197556 -0.138289,0.05927 -0.395112,0.276579 -0.256823,0.197556 -0.49389,0.454379 -0.237067,0.237067 -0.375356,0.434623 -0.138289,0.197556 -0.05927,0.237067 -0.03951,0.07902 0.217312,0.09878 0.276578,0.01976 0.375356,0.01976 z"
         id="path9061" />
      <path
         d="M 73.524125,25.650455 Q 73.267302,25.709725 73.04999,25.531922 72.832679,25.373877 72.733901,25.156565 72.595612,24.781209 72.5561,24.425608 72.51659,24.050252 72.51659,23.65514 v -0.592668 l -0.790224,0.691446 q -0.67169,0.632179 -1.284114,0.889002 -0.592668,0.256822 -1.066802,0.256822 -0.217312,-0.03951 -0.49389,-0.237067 -0.276579,-0.197556 -0.49389,-0.454379 -0.217312,-0.276578 -0.31609,-0.474134 -0.118533,-0.276578 -0.07902,-0.750713 0.05927,-0.49389 0.237067,-1.066802 0.197556,-0.592668 0.474134,-1.145825 0.296334,-0.572912 0.671691,-0.98778 0.651935,-0.98778 1.540937,-1.224847 0.908757,-0.237067 1.639714,0.1778 0.414868,0.197556 0.553157,0.158045 0.158045,-0.03951 0.217312,-0.31609 0.07902,-0.316089 0.158045,-0.612423 0.09878,-0.296334 0.276578,-0.849491 0.49389,-1.501426 0.849491,-2.350916 0.375356,-0.849491 0.67169,-1.48167 0.217312,-0.454379 0.414868,-0.612424 0.197556,-0.158045 0.355601,-0.138289 0.217311,0 0.49389,0.158045 0.276578,0.158044 0.375356,0.434623 0.07902,0.1778 0.05927,0.355601 0,0.1778 -0.118534,0.395112 -0.256823,0.474134 -0.612423,1.264358 -0.335846,0.770468 -0.691446,1.698982 -0.335846,0.928513 -0.63218,1.83727 -0.296334,0.908758 -0.49389,1.600204 -0.118533,0.434623 -0.197556,1.106314 -0.07902,0.67169 -0.118533,1.382892 -0.03951,0.691446 -0.03951,1.244602 0.01976,0.533402 0.05927,0.691446 0.118534,0.395112 0.03951,0.592668 -0.07902,0.197556 -0.256823,0.256823 -0.177801,0.07902 -0.395112,0.09878 z m -3.27943,-2.331161 q 0.276579,-0.07902 0.49389,-0.217311 0.237067,-0.158045 0.533401,-0.375357 0.592668,-0.454378 0.908758,-0.790224 0.335845,-0.3556 0.49389,-0.948268 0.07902,-0.31609 -0.01976,-0.533402 -0.09878,-0.217311 -0.316089,-0.414867 -0.237067,-0.177801 -0.592668,-0.138289 -0.355601,0.01975 -0.790224,0.414867 -0.474135,0.434623 -0.849491,1.066803 -0.375356,0.612423 -0.592668,1.679226 -0.03951,0.197556 0.138289,0.296334 0.177801,0.09878 0.592668,-0.03951 z"
         id="path9058" />
    </g>
  </g>
</svg>
